HIERARCHY
ROOT Hips
{
 OFFSET 0.000000 0.000000 0.000000
 CHANNELS 6 Xposition Yposition Zposition Yrotation Xrotation Zrotation
 JOINT Chest
 {
  OFFSET 0.000000 11.395451 -0.039534
  CHANNELS 3 Yrotation Xrotation Zrotation
  JOINT Chest2
  {
   OFFSET 0.000000 9.398669 0.071813
   CHANNELS 3 Yrotation Xrotation Zrotation
   JOINT Chest3
   {
    OFFSET 0.000000 8.489801 0.000000
    CHANNELS 3 Yrotation Xrotation Zrotation
    JOINT Chest4
    {
     OFFSET 0.000000 8.489801 0.000000
     CHANNELS 3 Yrotation Xrotation Zrotation
     JOINT Neck
     {
      OFFSET 0.000000 12.404889 0.000000
      CHANNELS 3 Yrotation Xrotation Zrotation
      JOINT Head
      {
       OFFSET 0.000000 8.903270 0.092239
       CHANNELS 3 Yrotation Xrotation Zrotation
       End Site
       {
        OFFSET 0.000000 17.592497 0.007158
       }
      }
     }
     JOINT RightCollar
     {
      OFFSET -3.196775 6.966722 0.000000
      CHANNELS 3 Yrotation Xrotation Zrotation
      JOINT RightShoulder
      {
       OFFSET -15.955896 0.000000 0.000000
       CHANNELS 3 Yrotation Xrotation Zrotation
       JOINT RightElbow
       {
        OFFSET -24.792472 0.000000 0.000000
        CHANNELS 3 Yrotation Xrotation Zrotation
        JOINT RightWrist
        {
         OFFSET -20.900115 0.000000 0.025002
         CHANNELS 3 Yrotation Xrotation Zrotation
         End Site
         {
          OFFSET -16.056692 0.000000 0.000000
         }
        }
       }
      }
     }
     JOINT LeftCollar
     {
      OFFSET 3.196775 6.966722 0.000000
      CHANNELS 3 Yrotation Xrotation Zrotation
      JOINT LeftShoulder
      {
       OFFSET 15.955896 0.000000 0.000000
       CHANNELS 3 Yrotation Xrotation Zrotation
       JOINT LeftElbow
       {
        OFFSET 24.792472 0.000000 0.000000
        CHANNELS 3 Yrotation Xrotation Zrotation
        JOINT LeftWrist
        {
         OFFSET 20.900115 0.000000 0.025002
         CHANNELS 3 Yrotation Xrotation Zrotation
         End Site
         {
          OFFSET 16.056692 0.000000 0.000000
         }
        }
       }
      }
     }
    }
   }
  }
 }
 JOINT RightHip
 {
  OFFSET -9.568995 0.193718 0.019767
  CHANNELS 3 Yrotation Xrotation Zrotation
  JOINT RightKnee
  {
   OFFSET 0.000000 -56.649296 0.015402
   CHANNELS 3 Yrotation Xrotation Zrotation
   JOINT RightAnkle
   {
    OFFSET 0.000000 -41.365147 0.021264
    CHANNELS 3 Yrotation Xrotation Zrotation
    JOINT RightToe
    {
     OFFSET 0.000000 -7.465940 17.672538
     CHANNELS 3 Yrotation Xrotation Zrotation
     End Site
     {
      OFFSET 0.000000 -1.736315 7.837145
     }
    }
   }
  }
 }
 JOINT LeftHip
 {
  OFFSET 9.568995 0.193718 0.019767
  CHANNELS 3 Yrotation Xrotation Zrotation
  JOINT LeftKnee
  {
   OFFSET 0.000000 -56.649296 0.015402
   CHANNELS 3 Yrotation Xrotation Zrotation
   JOINT LeftAnkle
   {
    OFFSET 0.000000 -41.365147 0.021264
    CHANNELS 3 Yrotation Xrotation Zrotation
    JOINT LeftToe
    {
     OFFSET 0.000000 -7.465940 17.672538
     CHANNELS 3 Yrotation Xrotation Zrotation
     End Site
     {
      OFFSET 0.000000 -1.736315 7.837145
     }
    }
   }
  }
 }
}
MOTION
Frames: 7
Frame Time: 0.016667
31.615328 104.228748 78.381561 -61.387777 5.780555 3.458058 3.070751 4.656760 -0.385787 1.367479 2.066942 -0.202158 1.367473 2.066864 -0.202161 1.026175 1.549661 -0.156234 3.290154 13.268392 -1.813880 6.968494 -11.353022 -4.769949 2.514155 1.691777 7.314991 15.261433 -25.455236 46.175239 36.582204 -37.973545 25.003387 -16.808466 -19.625205 6.373173 0.880196 3.649234 -6.733244 4.751358 -16.217447 -51.306288 -20.559938 -55.844234 -54.417040 20.244798 -15.982027 5.429700 -10.521953 -8.842777 -14.784122 -13.851772 49.054111 -6.699365 -4.915958 7.348522 -0.055369 -2.619634 -29.954452 22.878354 14.589203 -17.670633 -10.783189 -1.160802 19.255570 0.067712 9.328901 -8.868477 2.631927 -0.000000 -0.000000 -0.000000
30.740620 104.238021 79.100118 -59.914942 5.564578 3.221406 2.765897 4.699905 -0.213007 1.230367 2.087425 -0.122628 1.230361 2.087360 -0.122632 0.923084 1.565244 -0.096170 3.037727 13.390677 -1.768756 6.464177 -11.147640 -4.574001 2.716683 1.786431 7.178809 14.846983 -25.688076 46.316941 36.722519 -37.882561 25.153487 -16.847544 -19.614005 6.436957 1.293352 3.559793 -6.703472 4.240346 -16.163398 -51.050116 -20.374681 -55.873688 -54.692412 20.194355 -16.055326 5.464066 -10.534526 -10.134363 -14.234456 -11.735550 52.074705 -6.109189 -0.986974 4.913825 0.536348 -1.235658 -28.172412 17.659093 13.082908 -17.512226 -10.226201 0.465262 20.197681 0.194725 7.825216 -9.801587 2.948883 -0.000000 0.000000 -0.000000
29.830266 104.275438 79.803823 -58.574346 5.357860 2.949264 2.536781 4.729229 -0.054697 1.127028 2.101559 -0.050160 1.127028 2.101559 -0.050160 0.845349 1.576083 -0.041493 2.777773 13.510819 -1.690675 5.933522 -10.947705 -4.313939 2.836711 1.898212 7.092099 14.396192 -25.891258 46.543957 36.931069 -37.770850 25.221702 -16.849922 -19.596439 6.497803 1.624140 3.491485 -6.639605 3.751916 -16.116375 -50.842234 -20.267110 -55.908955 -54.872757 20.120260 -16.122172 5.507661 -10.606293 -11.422860 -13.532322 -9.197667 54.523892 -5.122983 1.838319 2.753605 1.135854 -0.294401 -26.180124 13.269887 11.781909 -17.189686 -9.693204 1.461072 20.874086 0.270939 6.808786 -10.617293 3.199827 0.000000 0.000000 0.000000
28.838082 104.356087 80.504807 -57.474108 5.150722 2.638189 2.483018 4.736421 0.066531 1.101921 2.105476 0.004188 1.101924 2.105511 0.004193 0.826338 1.579167 -0.000651 2.484709 13.649517 -1.550243 5.315408 -10.717465 -3.922954 2.766663 2.037051 7.105674 13.959586 -25.981877 46.902065 37.260688 -37.687042 25.088098 -16.795789 -19.563492 6.556947 1.768204 3.439379 -6.503790 3.283117 -16.040544 -50.696864 -20.285960 -55.956192 -54.894275 20.010956 -16.182952 5.569235 -10.740334 -12.664355 -12.625412 -5.975558 56.216894 -3.648752 2.699041 1.749929 2.088317 0.034043 -25.015156 10.213917 11.119165 -16.525023 -9.329862 0.830255 21.111694 0.188492 6.916386 -11.261022 3.308114 -0.000000 0.000000 -0.000000
27.810252 104.464879 81.190939 -56.505568 4.952486 2.293736 2.504570 4.729214 0.172953 1.110404 2.102830 0.051265 1.110405 2.102855 0.051270 0.832534 1.577255 0.034629 2.184616 13.786072 -1.376964 4.672670 -10.490398 -3.468950 2.615162 2.191662 7.169010 13.487971 -26.043952 47.346499 37.655773 -37.579132 24.874120 -16.705041 -19.523424 6.612205 1.829670 3.406946 -6.332528 2.837431 -15.969709 -50.599858 -20.384829 -56.010419 -54.820219 19.877755 -16.236958 5.639511 -10.950278 -13.903647 -11.546700 -2.420443 57.321238 -1.911797 2.518181 1.099453 3.378203 0.090028 -24.157005 7.636396 10.668081 -15.706024 -8.983149 -0.436487 21.080308 0.041624 7.520428 -11.788565 3.317145 0.000000 0.000000 0.000000
26.797575 104.579573 81.866253 -55.557956 4.778230 1.950257 2.503421 4.713668 0.271690 1.108900 2.096406 0.095197 1.108900 2.096406 0.095197 0.831256 1.572483 0.067585 1.908232 13.905440 -1.196822 4.074334 -10.291100 -3.013889 2.478279 2.314805 7.241818 13.046757 -26.046265 47.745997 38.021731 -37.492406 24.678944 -16.601945 -19.511196 6.654766 1.891752 3.372039 -6.176566 2.479741 -15.955262 -50.545422 -20.494686 -56.021602 -54.750703 19.781125 -16.263715 5.729247 -11.098038 -15.172351 -10.494620 0.149764 57.992009 -0.693250 2.135560 0.324214 4.238421 0.099233 -23.081025 5.896966 10.278514 -14.870414 -8.623092 -1.504786 20.955455 -0.046797 7.892145 -12.262457 3.333508 0.000000 0.000000 0.000000
25.821205 104.697841 82.533281 -54.610637 4.630269 1.620380 2.448046 4.689887 0.362507 1.083421 2.086283 0.136212 1.083424 2.086282 0.136210 0.812015 1.564958 0.098446 1.671975 14.003609 -1.015096 3.553182 -10.126604 -2.573893 2.383243 2.388851 7.317340 12.677938 -25.975167 48.063592 38.334076 -37.450117 24.506856 -16.508003 -19.536917 6.690890 1.985177 3.325721 -6.052162 2.282178 -16.029619 -50.556016 -20.590646 -55.951341 -54.728916 19.749215 -16.247595 5.851661 -11.149337 -16.507168 -9.531173 0.960433 58.333153 -0.609036 1.761363 -0.751228 4.286554 0.133763 -21.649249 5.380976 9.925907 -14.044240 -8.242624 -2.036851 20.763468 -0.028465 7.711708 -12.693729 3.406281 0.000000 0.000000 0.000000
